<svg width="1010" height="446" viewBox="0 0 1010 446" fill="none" xmlns="http://www.w3.org/2000/svg">
<path d="M1008.4 258.252C1004.4 237.489 998.923 225.737 992.662 211.728C988.67 202.794 984.981 194.355 983.752 188.813C980.711 175.1 982.202 157.917 982.906 151.687H946.077L939.874 161.552C925.73 184.045 894.813 233.254 894.81 233.257C877.682 258.974 856.372 290.969 825.66 303.07C819.862 305.028 807.591 309.002 797.877 297.875C788.623 287.275 789.427 275.827 789.465 275.345L789.503 274.835L789.526 274.524L789.754 274.307L790.133 273.946C830.716 235.458 869.442 193.219 888.795 166.336C911.082 135.374 922.259 109.892 930.987 88.4371C936.422 75.0659 947.721 41.5128 935.294 18.7971C930.097 9.29794 921.297 2.85035 910.513 0.641639C908.402 0.209884 906.378 0 904.328 0C881.457 0 854.354 28.7089 821.474 87.7675C794.106 136.913 774.653 179.123 763.654 213.227C757.964 230.871 754.224 253.225 754.223 253.228C752.99 255.444 730.623 281.216 708.535 295.834C701.142 300.727 690.248 306.776 674.652 306.776C660.526 306.776 647.423 298.143 647.421 298.141C647.425 298.138 670.118 285.91 706.69 250.028C726.455 230.635 734.809 204.138 728.492 180.875C718.579 144.409 683.699 141.575 673.244 141.575C644.102 141.665 620.408 160.55 608.974 176.695C581.406 215.6 582.613 247.458 586.744 270.865C588.084 278.431 590.524 285.882 593.997 293.01L594.341 293.715C594.337 293.718 550.906 324.109 524.831 288.953C514.823 275.46 499.394 247.444 499.391 247.439L590.294 151.698H541.439C510.366 183.866 481.327 214.258 481.321 214.264C481.318 214.258 459.916 173.283 449.763 151.687H410.296C413.75 158.501 417.233 165.536 421.034 173.213C433.566 198.525 455.641 241.162 455.643 241.165C455.641 241.168 446.222 250.997 446.219 251C441.233 256.176 426.058 271.928 401.65 286.899C388.015 295.245 373.703 300.955 357.894 304.354C345.524 307.014 329.597 307.308 320.008 304.738C314.524 303.267 304.196 298.231 304.195 298.231C304.199 298.228 332.756 280.361 363.594 250.048C383.34 230.639 391.696 204.141 385.4 180.893C375.484 144.435 340.602 141.602 330.148 141.602C301.014 141.691 277.313 160.568 265.87 176.706C238.304 215.588 239.512 247.464 243.645 270.891C244.859 277.776 249.523 290.73 249.523 290.73C228.403 301.857 208.387 308.499 183.952 309.375C181.832 309.451 172.79 309.485 169.886 309.332C169.169 309.294 166.932 308.994 166.932 308.994C166.933 308.994 172.037 305.725 173.23 304.911C203.365 284.363 216.664 247.427 217.581 214.84C218.337 187.956 211.982 166.238 199.685 153.694C191.964 145.81 181.75 141.732 169.323 141.575H168.798C146.9 141.575 121.958 154.695 104.586 170.997C100.517 174.816 88.9967 187.766 88.9962 187.766L96.1442 151.682H58.3236L0 446H37.8423L71.9625 273.754C79.3468 241.355 90.6691 220.819 112.371 200.391L112.728 200.086C118.102 195.531 124.248 191.203 130.034 187.9C139.596 182.438 148.247 179.669 155.747 179.669C160.196 179.669 164.21 180.659 167.68 182.611C179.961 189.556 181.456 206.427 182.26 215.49C185.409 251.206 157.814 275.414 154.657 278.057C145.58 285.645 136.112 289.333 125.709 289.333C111.78 289.333 101.341 284.396 95.4842 281.661C95.261 282.743 93.7936 289.937 93.7936 289.937C92.3427 297.171 89.5369 311.703 89.5366 311.705C104.706 324.679 134.953 339.233 174.855 341.523C178.091 341.711 181.372 341.807 184.605 341.807C213.928 341.807 242.66 334.143 270.004 319.029L270.52 318.745L270.964 319.127C281.346 328.061 291.345 332.418 294.631 333.85C313.735 342.174 334.528 341.659 336.569 341.659C361.806 341.659 385.379 334.39 392.003 332.162C433.975 318.044 457.784 291.641 466.748 281.82L473.584 274.621L477.924 282.617C483.658 293.227 490.157 305.252 501.618 318.343C506.375 323.778 524.349 341.511 555.929 341.511C585.905 341.511 616.74 321.265 616.742 321.264C616.748 321.269 626.86 329.218 637.778 334.36C651.455 340.8 667.394 341.495 673.612 341.495C704.685 341.495 730.342 329.94 756.799 304.027L757.708 303.137C757.71 303.141 761.553 312.277 764.867 317.039C781.888 341.499 803.812 341.577 811.5 341.577C818.605 341.577 830.538 340.348 839.516 336.881C879.639 321.379 910.795 278.253 925.795 253.926C925.798 253.922 937.233 235.809 950.75 208.026L953.768 201.948C953.769 201.95 960.974 219.032 960.976 219.036C965.122 229.092 968.989 240.291 970.829 247.568C975.909 267.233 979.311 284.516 969.425 296.829C964.603 302.773 954.667 309.168 944.243 309.168C938.785 309.168 933.639 307.462 928.947 304.097C927.171 302.79 925.327 301.144 923.45 299.192C915.786 308.748 907.838 317.47 899.805 325.143C906.707 330.136 922.83 341.891 946.97 341.891C954.318 341.891 964.777 340 971.61 336.607C999.416 322.803 1015.29 294.092 1008.4 258.252ZM806.121 203.791L808.849 196.994C819.073 171.537 833.862 141.525 854.061 105.244C877.42 63.2858 892.952 46.5469 900.131 40.3039L902.302 38.4173L903.607 37.284L903.689 38.992L903.824 41.8346C904.218 50.2874 901.478 62.6601 896.494 74.932C888.193 95.3378 878.419 117.58 858.463 145.305C848.479 159.165 832.173 178.33 812.547 199.268L807.512 204.644L804.478 207.884L806.121 203.791ZM286.641 269.799L285.761 270.437C285.761 270.437 284.498 267.87 283.787 265.837C280.91 257.608 279.959 244.142 281.392 233.233C283.92 214.363 292.319 201.65 295.813 197.059C306.246 183.356 318.201 175.822 329.345 174.516C333.218 174.063 339.883 174.611 345.673 180.16C351.122 185.383 360.735 203.83 340.005 226.121C333.685 232.913 328.065 238.351 314.882 249.229C305.014 257.409 289.626 267.799 286.641 269.799ZM628.615 270.145L627.654 270.785L627.343 269.686L626.256 265.841C623.231 255.117 622.428 244.142 623.872 233.219C626.366 214.419 634.787 201.662 638.29 197.05C648.714 183.346 660.622 175.344 671.823 174.519C672.549 174.464 673.312 174.428 674.102 174.428C679.553 174.428 684.148 176.297 688.149 180.143C693.595 185.383 703.19 203.858 682.459 226.119C676.13 232.917 670.511 238.358 657.362 249.236C646.526 258.2 628.793 270.027 628.615 270.145Z" fill="white"/>
</svg>
